<mxfile host="65bd71144e">
    <diagram id="192BWhAwzLiMw3UReCF3" name="Buoi1-1">
        <mxGraphModel dx="816" dy="582" grid="1" gridSize="10" guides="1" tooltips="1" connect="1" arrows="1" fold="1" page="1" pageScale="1" pageWidth="1169" pageHeight="827" math="0" shadow="0">
            <root>
                <mxCell id="0"/>
                <mxCell id="1" parent="0"/>
                <mxCell id="5" value="Frontend" style="rounded=1;whiteSpace=wrap;html=1;" parent="1" vertex="1">
                    <mxGeometry x="150" y="170" width="120" height="60" as="geometry"/>
                </mxCell>
                <mxCell id="6" value="Backend" style="rounded=1;whiteSpace=wrap;html=1;" parent="1" vertex="1">
                    <mxGeometry x="400" y="170" width="120" height="60" as="geometry"/>
                </mxCell>
                <mxCell id="7" value="Browser&lt;br&gt;(Trình duyệt)" style="rounded=0;whiteSpace=wrap;html=1;" parent="1" vertex="1">
                    <mxGeometry x="80" y="260" width="90" height="60" as="geometry"/>
                </mxCell>
                <mxCell id="16" value="DNS" style="edgeStyle=none;html=1;" parent="1" source="12" target="15" edge="1">
                    <mxGeometry relative="1" as="geometry"/>
                </mxCell>
                <mxCell id="12" value="Search -&amp;gt; Gõ từ cần tìm (Trình duyệt google.com)&lt;br&gt;Gõ tên web: google.com (domain - tên miền)" style="rounded=1;whiteSpace=wrap;html=1;" parent="1" vertex="1">
                    <mxGeometry x="50" y="310" width="150" height="80" as="geometry"/>
                </mxCell>
                <mxCell id="15" value="Địa chỉ IP:&lt;br&gt;142.250.187.238" style="whiteSpace=wrap;html=1;rounded=1;" parent="1" vertex="1">
                    <mxGeometry x="250" y="310" width="120" height="80" as="geometry"/>
                </mxCell>
                <mxCell id="19" value="HTML, CSS, JS" style="edgeStyle=none;html=1;entryX=1;entryY=0.75;entryDx=0;entryDy=0;" parent="1" source="17" target="12" edge="1">
                    <mxGeometry relative="1" as="geometry"/>
                </mxCell>
                <mxCell id="21" style="edgeStyle=none;html=1;entryX=0.011;entryY=0.344;entryDx=0;entryDy=0;entryPerimeter=0;" parent="1" source="17" target="20" edge="1">
                    <mxGeometry relative="1" as="geometry"/>
                </mxCell>
                <mxCell id="17" value="Server&lt;br&gt;(Máy chủ)" style="rounded=1;whiteSpace=wrap;html=1;" parent="1" vertex="1">
                    <mxGeometry x="250" y="384" width="120" height="60" as="geometry"/>
                </mxCell>
                <mxCell id="22" style="edgeStyle=none;html=1;entryX=1;entryY=0.5;entryDx=0;entryDy=0;" parent="1" source="20" target="17" edge="1">
                    <mxGeometry relative="1" as="geometry"/>
                </mxCell>
                <mxCell id="20" value="Database" style="rounded=1;whiteSpace=wrap;html=1;" parent="1" vertex="1">
                    <mxGeometry x="490" y="330" width="100" height="60" as="geometry"/>
                </mxCell>
                <mxCell id="23" value="" style="endArrow=none;html=1;" parent="1" edge="1">
                    <mxGeometry width="50" height="50" relative="1" as="geometry">
                        <mxPoint x="320" y="280" as="sourcePoint"/>
                        <mxPoint x="320" y="90" as="targetPoint"/>
                    </mxGeometry>
                </mxCell>
            </root>
        </mxGraphModel>
    </diagram>
    <diagram id="-YLL5LlST_3lm3iehWfV" name="Buoi1-2">
        <mxGraphModel dx="955" dy="582" grid="1" gridSize="10" guides="1" tooltips="1" connect="1" arrows="1" fold="1" page="1" pageScale="1" pageWidth="1169" pageHeight="827" math="0" shadow="0">
            <root>
                <mxCell id="0"/>
                <mxCell id="1" parent="0"/>
                <mxCell id="2GLKIDWK0WjUrEkQLPs_-1" value="git" style="rounded=0;whiteSpace=wrap;html=1;" vertex="1" parent="1">
                    <mxGeometry x="230" y="40" width="120" height="60" as="geometry"/>
                </mxCell>
                <mxCell id="2GLKIDWK0WjUrEkQLPs_-2" value="repository&lt;br&gt;(kho)" style="rounded=0;whiteSpace=wrap;html=1;" vertex="1" parent="1">
                    <mxGeometry x="170" y="170" width="100" height="60" as="geometry"/>
                </mxCell>
                <mxCell id="2GLKIDWK0WjUrEkQLPs_-4" value="quản lý lịch sử thay đổi code: ai là người thay đổi, dòng nào, vào ngày nào" style="rounded=1;whiteSpace=wrap;html=1;" vertex="1" parent="1">
                    <mxGeometry x="230" y="80" width="120" height="60" as="geometry"/>
                </mxCell>
                <mxCell id="7-byKBkhafnd_Zo73qN4-1" value="commit&lt;br&gt;(mỗi lần chấp nhận thay đổi code)" style="rounded=1;whiteSpace=wrap;html=1;" vertex="1" parent="1">
                    <mxGeometry x="290" y="170" width="120" height="60" as="geometry"/>
                </mxCell>
                <mxCell id="7-byKBkhafnd_Zo73qN4-2" value="github" style="rounded=0;whiteSpace=wrap;html=1;" vertex="1" parent="1">
                    <mxGeometry x="510" y="40" width="120" height="60" as="geometry"/>
                </mxCell>
                <mxCell id="7-byKBkhafnd_Zo73qN4-3" value="trang web,&lt;br&gt;cung cấp dịch vụ: tạo và quản các repo&lt;br&gt;(remote repository)" style="rounded=0;whiteSpace=wrap;html=1;" vertex="1" parent="1">
                    <mxGeometry x="510" y="90" width="120" height="60" as="geometry"/>
                </mxCell>
                <mxCell id="7-byKBkhafnd_Zo73qN4-4" value="1. git clone url : sao chép repo từ xa về máy&lt;br&gt;2. git status: kiểm tra trạng thái&lt;br&gt;3. git add . : thêm các file cho git theo dõi&lt;br&gt;4. git commit -m &quot;message&quot;: chấp nhận các thay đổi&lt;br&gt;5. git push -u origin main: đẩy các thay đổi lên github&lt;br&gt;&lt;br&gt;&lt;br&gt;" style="rounded=0;whiteSpace=wrap;html=1;" vertex="1" parent="1">
                    <mxGeometry x="160" y="240" width="310" height="130" as="geometry"/>
                </mxCell>
                <mxCell id="7-byKBkhafnd_Zo73qN4-5" value="CMD (terminal) (giao diện dòng lệnh)&lt;br&gt;cd Documents: di chuyển vào thư mục&lt;br&gt;cd shopee-clone&lt;br&gt;code .: mở vs code tại thư mục đó&lt;br&gt;mkdir &amp;lt;tên thư mục&amp;gt; : tạo thư mục" style="rounded=0;whiteSpace=wrap;html=1;" vertex="1" parent="1">
                    <mxGeometry x="160" y="414" width="240" height="90" as="geometry"/>
                </mxCell>
            </root>
        </mxGraphModel>
    </diagram>
</mxfile>